<svg xmlns="http://www.w3.org/2000/svg" viewBox="0 0 256 256" role="img" aria-label="車のアイコン">
  <defs>
    <linearGradient id="carBody" x1="54" y1="88" x2="204" y2="176" gradientUnits="userSpaceOnUse">
      <stop offset="0" stop-color="#f3f9df"/>
      <stop offset="1" stop-color="#b9dc67"/>
    </linearGradient>
    <linearGradient id="carGlass" x1="86" y1="80" x2="165" y2="124" gradientUnits="userSpaceOnUse">
      <stop offset="0" stop-color="#ffffff"/>
      <stop offset="1" stop-color="#ddf0f3"/>
    </linearGradient>
  </defs>
  <circle cx="128" cy="128" r="108" fill="#fbfdf3"/>
  <path d="M68 122 86 86c5-10 15-16 27-16h36c12 0 23 6 29 17l19 35h8c12 0 22 10 22 22v23c0 12-10 22-22 22H51c-12 0-22-10-22-22v-23c0-12 10-22 22-22h17Z" fill="url(#carBody)" stroke="#8fb547" stroke-width="7" stroke-linejoin="round"/>
  <path d="M89 120 103 92c3-6 9-9 16-9h24c7 0 14 4 17 10l14 27H89Z" fill="url(#carGlass)" stroke="#8fb547" stroke-width="5" stroke-linejoin="round"/>
  <path d="M132 83v37" fill="none" stroke="#8fb547" stroke-width="5" stroke-linecap="round"/>
  <circle cx="76" cy="186" r="18" fill="#fffaf2" stroke="#6f9330" stroke-width="7"/>
  <circle cx="180" cy="186" r="18" fill="#fffaf2" stroke="#6f9330" stroke-width="7"/>
  <path d="M50 145h21M185 145h22" fill="none" stroke="#fffaf2" stroke-width="8" stroke-linecap="round"/>
  <path d="M70 62c12-10 25-16 40-17" fill="none" stroke="#f6a458" stroke-width="7" stroke-linecap="round" opacity=".9"/>
</svg>
